<svg viewBox="0 0 1000 600" xmlns="http://www.w3.org/2000/svg"><path d="m0 0h1000v600h-1000z" fill="#fff"/><rect fill="#2cb1bc" height="147.26383985274" rx="5.89055345274" stroke-width=".44179152" width="147.26383985274" x="124.99999476976" y="226.36807993329"/><g transform="matrix(.44179152 0 0 .44179152 0 91.550484)"><path d="m382.19051111 418.53086612q-5.98705472-3.64077652-11.65048486-3.64077652-9.18284744 0-20.105177 2.91262122l-7.86812259 1.88106786q-3.49919076.86974106-5.38025863.86974106-4.36893183 0-4.36893183-3.19579272 0-1.90129441 3.13511312-4.73300948 3.11488658-2.83171507 8.37378599-5.46116477 12.94498318-6.41181199 28.09465881-6.41181199 21.70307336 0 27.8114873 7.4231388 1.75970865 2.04288015 1.75970865 5.68365667-.30339804 14.13834882-13.10679547 75.14158205 17.17232925-6.97815499 21.03559767-11.48867257 3.86326842-4.53074411 6.04773433-4.53074411 2.18446591 0 2.18446591 4.53074411 0 4.51051758-2.69012932 7.84789605-2.69012932 3.35760502-8.45469214 7.58495109-5.74433628 4.22734607-21.03559766 10.7807438-1.17313911 5.82524243-4.36893183 12.94498318-10.92232956 30.1577655-35.67960989 30.1577655-12.09546865 0-20.52993426-5.23867288-8.45469214-5.25889942-8.45469214-16.18122897 0-3.92394803 4.00485417-7.4231388 4.00485418-3.49919076 11.65048487-7.34223264 7.64563069-3.86326842 29.77346131-11.73139101.88996759-5.09708713 1.45631061-9.54692509.58656955-4.42961144 1.31472485-7.64563069 3.05420697-20.81310577 12.09546866-49.06957687 2.60922317-8.00970834 4.95550137-14.11812228zm-46.03559643 114.60355421q4.36893182 2.32605167 8.31310639 2.40695781 3.92394802.06067961 5.96682818-1.75970865 2.04288016-1.82038826 4.44983797-5.88592204 2.38673127-4.08576032 4.73300947-14.27993457-7.58495108 2.62944971-12.9045301 4.36893182-5.29935249 1.75970865-8.57605136 3.21601926-3.27669887 1.45631061-4.81391562 2.75080893-1.53721675 1.31472485-1.53721675 3.21601926 0 3.64077652 4.36893182 5.96682818zm94.23543224-56.93769945q0 12.66181167 10.7807438 12.66181167 11.79207062 0 15.8576044-8.1512941 1.45631061-2.91262121 1.45631061-7.50404493 0-4.59142372-2.18446591-8.51537175-3.64077652-6.27022623-12.52022592-13.83495077-14.70469183-12.52022592-14.70469183-25.99109904 0-13.47087312 8.45469214-20.75242616 8.4344656-7.28155304 19.35679516-7.28155304 10.92232955 0 17.33414153 5.52184439 6.41181199 5.54207092 6.41181199 16.60598623 0 7.28155304-4.87459523 12.68203821-4.89482177 5.38025863-12.90453011 6.69498349 3.64077652 3.05420697 7.28155304 6.24999969 3.49919076 3.21601926 6.41181198 6.99838153 6.41181198 8.59627789 6.41181198 20.52993426 0 8.31310639-3.86326842 15.00808988-3.86326841 6.69498348-10.0525885 11.2864072-6.18932008 4.59142373-13.89563038 7.05906115-7.72653683 2.46763741-14.42152032 2.46763741-14.27993457 0-22.12783062-6.55339773-9.18284745-7.42313879-9.18284745-21.39967532 0-9.18284744 5.96682819-17.7588988 5.96682818-8.59627789 12.68203821-8.59627789 5.23867288 0 5.23867288 3.19579272 0 4.67232987-1.45631061 9.24352705-1.45631061 4.59142372-1.45631061 10.13349465zm28.2564711-41.36326657q8.29287985-8.29287985 8.29287985-17.33414154 0-2.77103546-2.91262122-4.65210333-3.19579272-1.75970865-6.69498349-1.75970865-7.86812259 0-11.36731335 5.09708713 1.75970865 6.27022623 5.17799327 10.63915805 3.41828462 4.36893182 7.50404494 8.00970834zm72.51213234 65.6755631q0 8.59627789-16.74757199 8.59627789-3.64077652 0-4.28802568-3.72168266-.66747569-3.70145613-.66747569-9.24352705 0-5.52184439.80906145-11.87297676.80906144-6.33090584 2.10355976-13.75404463 2.48786396-14.27993457 7.07928768-30.80501466 4.57119718-16.52508009 9.1019413-25.54611524-9.18284745.56634301-18.2038826 3.27669886-9.04126169 2.69012932-12.82362396 3.78236228-3.78236227 1.09223295-6.27022623 1.09223295-2.46763742 0-2.46763742-1.59789636 0-1.9012944 2.91262122-5.62297707 2.91262121-3.70145612 8.29287985-7.4838184 13.69336502-9.32443319 30.440937-9.46601895l47.91666431.42475726q3.92394802 0 3.92394802 3.05420697 0 .8899676-1.15291256 3.13511312-1.1731391 2.26537205-2.04288016 4.87459522-1.90129441 5.25889942-7.9288022 5.25889942-6.04773433 0-28.7621345-.88996759-.58656955 6.41181198-2.3462782 16.38349433-1.73948212 9.9919089-3.78236227 21.78397951-4.95550138 30.13753897-5.09708713 48.34142156z" fill="#fff"/><path d="m764.85635889 418.53086612q-5.98705472-3.64077652-11.65048486-3.64077652-9.18284744 0-20.105177 2.91262122l-7.86812259 1.88106786q-3.49919077.86974106-5.38025863.86974106-4.36893183 0-4.36893183-3.19579272 0-1.90129441 3.13511312-4.73300948 3.11488657-2.83171507 8.37378599-5.46116477 12.94498318-6.41181199 28.09465881-6.41181199 21.70307336 0 27.8114873 7.4231388 1.75970865 2.04288015 1.75970865 5.68365667-.30339804 14.13834882-13.10679547 75.14158205 17.17232925-6.97815499 21.03559767-11.48867257 3.86326841-4.53074411 6.04773433-4.53074411 2.18446591 0 2.18446591 4.53074411 0 4.51051758-2.69012932 7.84789605-2.69012932 3.35760502-8.45469214 7.58495109-5.74433629 4.22734607-21.03559767 10.7807438-1.1731391 5.82524243-4.36893182 12.94498318-10.92232956 30.1577655-35.67960989 30.1577655-12.09546866 0-20.52993426-5.23867288-8.45469214-5.25889942-8.45469214-16.18122897 0-3.92394803 4.00485417-7.4231388 4.00485417-3.49919076 11.65048486-7.34223264 7.64563069-3.86326842 29.77346132-11.73139101.88996759-5.09708713 1.45631061-9.54692509.58656955-4.42961144 1.31472485-7.64563069 3.05420697-20.81310577 12.09546866-49.06957687 2.60922317-8.00970834 4.95550137-14.11812228zm-46.03559643 114.60355421q4.36893182 2.32605167 8.31310638 2.40695781 3.92394803.06067961 5.96682819-1.75970865 2.04288016-1.82038826 4.44983797-5.88592204 2.38673127-4.08576032 4.73300947-14.27993457-7.58495108 2.62944971-12.90453011 4.36893182-5.29935248 1.75970865-8.57605135 3.21601926-3.27669887 1.45631061-4.81391562 2.75080893-1.53721675 1.31472485-1.53721675 3.21601926 0 3.64077652 4.36893182 5.96682818zm132.82766334-38.5922311q-11.50889911 13.55177926-27.60922194 13.55177926-16.08009629 0-24.08980463-8.23220024-8.00970834-8.23220024-7.86812259-20.46925465-.14158575-17.33414154 10.92232956-29.85436746 11.06391531-12.52022592 28.9846264-12.52022592 8.15129409 0 13.10679547 2.04288016 8.59627789 3.49919077 8.59627789 6.55339774 0 2.32605166-12.01456251 2.40695781-12.01456252.0606796-20.105177 8.29287985-8.09061449 8.23220024-8.09061449 20.75242615 0 6.55339774 3.86326842 11.00323571 3.86326841 4.42961143 10.92232955 4.42961143 7.05906114 0 11.73139101-2.91262122-10.33576001-6.97815499-10.33576001-20.24676275-.16181229-6.978155 5.01618099-12.74271782 5.17799327-5.74433628 13.24838122-5.82524243 8.09061449-.06067961 11.58980525 4.44983797 3.47896423 4.51051758 3.47896423 11.56957872 0 7.07928767-3.33737848 14.92718373h.86974106q6.41181198-.14158576 11.06391531-4.51051758 1.75970865-1.73948212 2.99352736-3.05420697 1.23381871-1.31472485 2.54854357-1.31472485 2.04288016 0 2.04288016 4.81391562 0 8.87944939-5.25889942 13.32928736-5.23867288 4.42961143-11.56957872 4.42961143-6.33090583 0-10.69983766-.86974105zm-1.31472485-16.88915774q2.46763742-5.23867289 2.46763742-10.19417426 0-4.95550137-3.19579273-4.95550137-1.31472485 0-2.18446591 1.9012944-.86974105 1.88106787-.86974105 3.64077652 0 5.82524243 3.78236227 9.60760471zm33.77831548-39.17880066q-10.76051727-4.65210333-10.76051727-9.02103515 0-2.3462782 1.88106787-2.18446591 2.62944971 0 5.96682819 1.23381871 3.35760501 1.2338187 6.85679577 1.96197401 11.93365637-22.57281442 27.083332-29.57119595 5.09708713-2.32605167 10.19417425-2.46763742 10.05258851 0 15.37216753 4.87459523 5.29935249 4.87459523 5.29935249 11.87297676 0 12.52022592-13.53155273 19.37702169-11.06391531 5.52184439-30.1577655 6.83656925-6.83656924 16.88915774-6.83656924 36.26617944 0 14.42152032 6.69498349 16.74757198 4.67232986 1.59789637 6.99838153.06067961 2.32605166-1.51699021 3.64077652-4.06553378 1.31472485-2.54854356 1.37540446-7.50404493.08090614-4.95550138-2.77103546-8.373786-2.83171507-3.41828462-5.46116478-6.33090583 1.31472485-4.81391562 3.80258881-8.00970835 4.65210333-6.27022622 8.00970834-6.27022622 3.33737848 0 5.46116478 2.32605166 2.10355976 2.3462782 3.41828462 5.82524243 1.31472485 3.49919077 2.10355977 7.58495108.80906144 4.06553378 1.82038826 7.56472455 1.03155334 3.49919076 2.54854356 5.82524243 1.53721675 2.32605166 4.08576031 2.32605166 2.54854357 0 4.59142373-1.96197401 2.02265362-1.96197401 3.64077652-4.28802568 1.59789636-2.32605166 2.91262121-4.30825221 1.29449832-1.96197401 2.69012932-1.96197401 1.37540446 0 2.77103546 2.32605166 1.37540446 2.3462782 1.37540446 4.36893182 0 4.67232987-4.59142372 11.08414185-4.59142372 6.39158545-11.71116447 6.33090584-7.13996728-.08090615-11.08414185-2.99352736-2.46763742 6.12864047-8.4344656 10.19417425-5.96682818 4.08576032-16.97006389 4.08576032-11.0032357 0-18.85113175-5.68365668-9.46601895-6.83656924-9.46601895-21.25808957 0-20.52993426 10.03236196-42.81957717zm45.87378414-20.67152001q-.14158575-5.09708713-3.70145612-5.09708713-3.58009691 0-9.24352705 5.38025863-5.68365668 5.38025864-10.92232956 15.00808988 15.85760439-2.77103546 21.68284682-9.769417 2.04288016-2.60922317 2.18446591-5.52184438zm95.69174285 58.39401006q0 12.66181167 10.78074381 12.66181167 11.79207061 0 15.85760439-8.1512941 1.45631061-2.91262121 1.45631061-7.50404493 0-4.59142372-2.18446591-8.51537175-3.64077652-6.27022623-12.52022592-13.83495077-14.70469183-12.52022592-14.70469183-25.99109904 0-13.47087312 8.45469214-20.75242616 8.4344656-7.28155304 19.35679516-7.28155304 10.92232956 0 17.33414154 5.52184439 6.41181198 5.54207092 6.41181198 16.60598623 0 7.28155304-4.87459523 12.68203821-4.89482177 5.38025863-12.90453011 6.69498349 3.64077652 3.05420697 7.28155304 6.24999969 3.49919077 3.21601926 6.41181198 6.99838153 6.41181198 8.59627789 6.41181198 20.52993426 0 8.31310639-3.86326841 15.00808988-3.86326842 6.69498348-10.0525885 11.2864072-6.18932009 4.59142373-13.89563039 7.05906115-7.72653683 2.46763741-14.42152032 2.46763741-14.27993457 0-22.12783062-6.55339773-9.18284745-7.42313879-9.18284745-21.39967532 0-9.18284744 5.96682819-17.7588988 5.96682818-8.59627789 12.68203821-8.59627789 5.23867288 0 5.23867288 3.19579272 0 4.67232987-1.45631061 9.24352705-1.45631061 4.59142372-1.45631061 10.13349465zm28.2564711-41.36326657q8.29287985-8.29287985 8.29287985-17.33414154 0-2.77103546-2.91262122-4.65210333-3.19579272-1.75970865-6.69498349-1.75970865-7.86812258 0-11.36731335 5.09708713 1.75970865 6.27022623 5.17799327 10.63915805 3.41828462 4.36893182 7.50404494 8.00970834zm68.44659856 56.20954415q11.34708682 0 21.98624487-9.02103515 3.92394803-3.35760501 6.41181198-6.18932008 2.46763742-2.85194161 3.78236227-2.85194161 2.04288016 0 2.04288016 4.08576031 0 4.08576032-2.18446591 9.1019413-2.18446591 5.01618099-7.28155304 9.83009661-12.54045245 11.79207061-34.38511157 11.79207061-17.313915 0-23.58414123-12.52022592-2.18446591-4.36893182-2.18446591-12.52022592 0-8.15129409 3.19579272-16.97006388 3.21601926-8.8187698 8.53559829-15.21035524 5.29935248-6.41181198 12.29773402-9.99190889 6.99838153-3.55987038 14.92718373-3.55987038 7.92880219 0 12.23705441 3.92394803 4.28802568 3.94417456 4.28802568 10.19417425 0 6.27022623-3.13511312 10.2750804-3.11488658 4.00485417-8.07038795 6.69498349-4.95550137 2.69012932-11.0032357 4.81391562-6.04773433 2.10355977-11.87297676 4.73300948v3.64077651q.16181229 5.23867288 4.36893182 7.4231388 4.22734607 2.18446591 9.62783124 2.32605166zm-2.48786395-41.05986852q-7.56472455 0-10.47734577 17.61731304 3.05420697-2.04288015 5.74433629-3.64077651 2.69012932-1.59789637 4.73300948-3.05420697 4.36893182-3.21601926 4.51051757-7.28155304 0-3.64077652-4.51051757-3.64077652zm118.83090028 22.57281442q2.62944971 0 2.62944971 6.69498349 0 3.64077652-3.05420697 8.81876979-3.05420697 5.15776673-7.94902874 9.46601895-4.87459523 4.28802568-10.84142341 7.05906114-5.96682818 2.77103546-11.65048486 2.77103546-7.72653684 0-10.33576001-13.55177927-3.78236227 6.27022623-9.91100275 10.2750804-6.10841393 4.00485417-16.38349433 4.00485417-10.25485387 0-16.52508009-6.41181198-6.27022623-6.41181198-6.10841394-15.59465942 0-24.75728033 16.44417394-39.01698837 6.99838154-5.96682818 13.04611587-7.86812259 6.02750779-1.9012944 12.74271781-1.9012944 6.69498349 0 10.92232956 2.3462782 2.02265362-4.22734607 4.65210333-4.22734607 5.09708713 0 9.68851085 4.42961143 4.59142372 4.44983797 4.59142372 8.373786-2.04288016 4.81391562-5.98705472 11.50889911-1.15291256 6.69498348-1.15291256 18.79045214 0 12.09546866 3.05420696 12.09546866 3.78236228 0 18.34546835-15.14967563 2.62944971-2.91262121 3.78236228-2.91262121zm-68.72977007 8.73786364q0 11.20550107 8.29287985 11.20550107 8.89967593-.14158575 14.72491836-9.46601895 2.02265363-3.19579272 3.33737848-7.86812259 0-16.30258819 2.91262122-27.95307305-11.79207062 2.32605166-20.52993427 11.36731335-8.73786364 9.02103515-8.73786364 22.71440017zm85.3357563 1.15291257.86974106 17.77912533q0 3.49919077-3.64077652 6.2499997-3.64077652 2.77103546-9.89077621 2.77103546-3.64077652 0-5.03640752-3.78236227-1.37540446-3.78236228-1.37540446-11.06391532 0-15.29126138 1.53721675-23.96844541 1.51699022-8.65695751 6.02750779-17.53640691-6.69498348-6.41181198-6.69498348-11.06391531 0-9.76941699 10.49757229-9.76941699 5.38025864 0 9.46601895 5.68365668 2.91262122 3.92394802 4.20711954 9.18284744 2.04288015.7281553 5.09708712.7281553 4.22734607 0 9.769417-2.77103546l3.78236227-1.9012944q1.73948211-.86974106 3.05420697-.86974106 4.22734607 0 8.45469214 12.37864017-1.31472486 5.68365667-2.85194161 10.92232955-1.51699022 5.23867288-3.55987037 12.66181168-2.04288016 7.44336532-2.10355977 9.99190889-.08090615 2.54854356 1.51699022 2.54854356 2.18446591 0 5.40048517-2.77103546 3.19579272-2.77103546 6.39158544-6.04773433 3.21601926-3.27669887 5.90614858-6.04773433 2.69012931-2.77103546 3.72168266-2.77103546 2.02265362 0 2.02265362 4.95550137 0 10.0525885-8.79854325 19.80177896-8.81876979 9.76941699-20.16585661 9.62783124-6.71521003 0-10.0525885-5.40048517-3.35760501-5.38025863-3.49919077-13.10679547 0-15.29126138 6.83656924-28.9846264-3.19579272 1.31472485-7.20064689 1.31472485-4.00485417 0-5.74433629-.2831715-1.31472485 5.52184438-2.6294497 11.14482145-1.31472486 5.60275054-1.31472486 10.39643962zm103.11488164-9.89077621q2.60922317 0 2.60922317 4.42961143 0 4.44983797-2.24514552 9.54692509-2.26537205 5.09708713-6.85679577 9.83009661-4.57119719 4.73300947-11.71116447 8.09061448-7.13996729 3.33737848-16.82847814 3.33737848-9.68851085 0-16.97006389-5.74433629-7.28155303-5.76456282-7.28155303-16.60598623 0-10.84142341 3.43851115-19.6601932 3.41828462-8.8187698 9.02103516-15.21035524 5.60275053-6.41181198 12.74271781-9.99190889 7.13996729-3.55987038 13.55177927-3.55987038 11.20550106 0 11.20550106 8.8794494 0 5.09708713-2.10355976 8.1512941-2.1237863 3.0744335-4.30825222 3.0744335-2.91262121 0-5.09708712-2.04288015-2.18446591-2.04288016-4.79368909-2.12378631-2.62944971-.06067961-5.03640752 2.54854357-2.40695781 2.6294497-4.00485417 6.71521002-3.19579272 8.1512941-3.19579272 19.07362365.14158575 5.23867288 4.79368908 7.86812259 3.21601926 1.73948212 7.58495109 1.82038826 4.36893182.06067961 8.37378599-2.8519416 4.00485417-2.91262122 7.34223265-6.33090584 3.35760501-3.41828462 5.90614857-6.33090584 2.54854357-2.91262121 3.86326842-2.91262121zm43.83090399-14.56310608q0-5.23867288-6.18932009-5.23867288-6.18932008 0-12.15614826 9.52669856-5.96682819 9.54692509-7.4231388 19.43770131.28317151 3.35760501.56634302 6.71521002.30339804 3.33737848.30339804 6.55339773 0 7.7063103-5.09708713 10.47734577-2.32605166 1.31472485-4.44983796 2.46763741-2.10355977 1.1731391-4.87459523 1.1731391-2.77103546 0-4.87459523-3.72168266-2.1237863-3.70145613-2.1237863-11.56957872 0-21.98624487 3.21601926-38.1472473 4.95550137-25.06067838 19.6601932-53.60032098 2.04288016-3.92394803 5.96682818-3.86326842 3.92394803.08090615 6.41181198 5.46116478 2.46763742 5.40048517 2.40695781 9.04126169-.08090614 3.64077652-1.1731391 7.05906114-1.09223295 3.41828462-2.77103546 6.69498349-1.6788025 3.27669886-3.78236227 6.69498349-2.10355977 3.41828462-4.14643993 7.36245918l-2.18446591 10.47734576q5.68365668-9.46601895 15.29126138-12.66181167 3.49919077-1.1731391 7.7063103-1.1731391 9.91100275 0 15.00808988 4.44983796 5.09708712 4.42961144 5.09708712 12.52022592 0 8.09061449-2.10355976 16.38349434-2.12378631 8.29287985-3.07443351 11.87297676-.93042066 3.55987037-.93042066 5.88592204 0 2.3462782 1.59789636 2.3462782 2.18446591 0 5.38025863-2.77103546 3.21601926-2.77103546 6.41181198-6.04773433 3.19579272-3.27669887 5.90614858-6.04773433 2.69012931-2.77103546 3.70145613-2.77103546 2.04288015 0 2.04288015 4.95550137 0 10.19417426-10.0525885 19.66019321-16.88915774 9.91100274-21.54126107 9.91100274-.4449838 0-.58656955-.14158575-11.65048486 0-11.65048486-18.64886639 0-8.00970835 1.51699022-14.70469183 1.53721675-6.69498349 2.26537205-9.769417.72815531-3.05420697.72815531-6.24999969zm132.66585105 42.51617913q0 8.59627789-16.74757199 8.59627789-3.64077652 0-4.28802568-3.72168266-.66747569-3.70145613-.66747569-9.24352705 0-5.52184439.80906145-11.87297676.80906145-6.33090584 2.10355976-13.75404463 2.48786396-14.27993457 7.07928768-30.80501466 4.57119718-16.52508009 9.1019413-25.54611524-9.18284745.56634301-18.2038826 3.27669886-9.04126169 2.69012932-12.82362396 3.78236228-3.78236227 1.09223295-6.27022623 1.09223295-2.46763742 0-2.46763742-1.59789636 0-1.9012944 2.91262122-5.62297707 2.91262121-3.70145612 8.29287985-7.4838184 13.69336502-9.32443319 30.44093701-9.46601895l47.9166643.42475726q3.92394802 0 3.92394802 3.05420697 0 .8899676-1.15291256 3.13511312-1.1731391 2.26537205-2.04288016 4.87459522-1.9012944 5.25889942-7.9288022 5.25889942-6.04773433 0-28.7621345-.88996759-.58656955 6.41181198-2.3462782 16.38349433-1.73948212 9.9919089-3.78236227 21.78397951-4.95550138 30.13753897-5.09708713 48.34142156zm53.45873522-18.06229684.86974106 17.77912533q0 3.49919077-3.64077652 6.2499997-3.64077652 2.77103546-9.91100274 2.77103546-3.64077652 0-5.01618099-3.78236227-1.395631-3.78236228-1.395631-11.06391532 0-15.29126138 1.53721676-23.96844541 1.53721675-8.65695751 6.04773433-17.53640691-6.69498349-6.41181198-6.69498349-11.06391531 0-9.76941699 10.47734576-9.76941699 5.38025863 0 9.46601895 5.68365668 2.91262121 3.92394802 4.22734607 9.18284744 2.04288016.7281553 5.09708713.7281553 4.22734606 0 9.74919045-2.77103546l3.78236227-1.9012944q1.75970866-.86974106 3.07443351-.86974106 4.20711953 0 8.4344656 12.37864017-1.31472485 5.68365667-2.83171507 10.92232955-1.53721675 5.23867288-3.58009691 12.66181168-2.02265362 7.44336532-2.10355976 9.99190889-.08090615 2.54854356 1.53721675 2.54854356 2.18446591 0 5.38025863-2.77103546 3.19579272-2.77103546 6.41181198-6.04773433 3.19579273-3.27669887 5.88592204-6.04773433 2.71035586-2.77103546 3.72168267-2.77103546 2.04288015 0 2.04288015 4.95550137 0 10.0525885-8.81876979 19.80177896-8.79854325 9.76941699-20.16585661 9.62783124-6.69498348 0-10.0525885-5.40048517-3.33737847-5.38025863-3.49919076-13.10679547 0-15.29126138 6.85679578-28.9846264-3.21601926 1.31472485-7.22087343 1.31472485-4.00485418 0-5.74433629-.2831715-1.31472485 5.52184438-2.62944971 11.14482145-1.29449832 5.60275054-1.29449832 10.39643962zm134.70873122-9.89077621q2.60922317 0 2.60922317 6.69498349 0 3.64077652-3.05420697 8.81876979-3.05420697 5.15776673-7.9288022 9.46601895-4.89482176 4.28802568-10.86164995 7.05906114-5.96682818 2.77103546-11.65048486 2.77103546-7.7063103 0-10.33576001-13.55177927-3.78236227 6.27022623-9.91100274 10.2750804-6.10841394 4.00485417-16.38349434 4.00485417-10.25485386 0-16.52508009-6.41181198-6.24999969-6.41181198-6.10841394-15.59465942 0-24.75728033 16.44417395-39.01698837 6.99838153-5.96682818 13.04611586-7.86812259 6.04773433-1.9012944 12.74271782-1.9012944 6.69498348 0 10.92232955 2.3462782 2.04288016-4.22734607 4.65210333-4.22734607 5.09708713 0 9.68851085 4.42961143 4.59142372 4.44983797 4.59142372 8.373786-2.04288015 4.81391562-5.96682818 11.50889911-1.1731391 6.69498348-1.1731391 18.79045214 0 12.09546866 3.05420697 12.09546866 3.78236227 0 18.34546835-15.14967563 2.62944971-2.91262121 3.80258881-2.91262121zm-68.74999661 8.73786364q0 11.20550107 8.31310639 11.20550107 8.8794494-.14158575 14.70469183-9.46601895 2.04288015-3.19579272 3.33737847-7.86812259 0-16.30258819 2.91262122-27.95307305-11.79207062 2.32605166-20.52993426 11.36731335-8.73786365 9.02103515-8.73786365 22.71440017zm121.90533379-8.73786364q2.60922317 0 2.60922317 4.42961143 0 4.44983797-2.24514552 9.54692509-2.26537206 5.09708713-6.85679578 9.83009661-4.59142372 4.73300947-11.71116447 8.09061448-7.13996728 3.33737848-16.82847813 3.33737848-9.68851085 0-16.97006389-5.74433629-7.28155304-5.76456282-7.28155304-16.60598623 0-10.84142341 3.41828462-19.6601932 3.43851116-8.8187698 9.04126169-15.21035524 5.60275053-6.41181198 12.74271782-9.99190889 7.13996728-3.55987038 13.53155273-3.55987038 11.2257276 0 11.2257276 8.8794494 0 5.09708713-2.1237863 8.1512941-2.10355977 3.0744335-4.28802568 3.0744335-2.91262122 0-5.09708713-2.04288015-2.18446591-2.04288016-4.81391562-2.12378631-2.60922317-.06067961-5.01618098 2.54854357-2.40695781 2.6294497-4.00485417 6.71521002-3.19579272 8.1512941-3.19579272 19.07362365.14158575 5.23867288 4.79368908 7.86812259 3.21601926 1.73948212 7.58495108 1.82038826 4.36893183.06067961 8.373786-2.8519416 4.00485417-2.91262122 7.34223264-6.33090584 3.35760502-3.41828462 5.90614858-6.33090584 2.54854356-2.91262121 3.86326842-2.91262121zm37.8640758 2.46763742q3.92394802 15.59465942 13.24838122 15.59465942 4.51051758 0 8.1512941-2.77103546 3.64077651-2.77103546 6.55339773-6.04773433 2.91262122-3.27669887 5.09708713-6.04773433 2.18446591-2.77103546 4.08576031-2.77103546 1.88106787 0 1.88106787 4.95550137 0 10.33576001-9.6076047 19.96359125-9.60760471 9.6076047-21.48058147 9.52669856-11.87297676-.06067961-21.19740995-20.89401192-2.60922317-5.82524243-4.93527484-11.79207061l-1.03155335 19.94336471q0 2.77103546-.2831715 5.46116478-.30339805 2.69012932-2.48786396 4.44983797-5.66343014 4.51051757-11.48867257 4.51051757-6.85679578 0-6.85679578-14.11812228 0-20.3883485 4.81391562-42.67799142 4.79368909-22.28964291 9.38511281-33.57605012 4.59142372-11.28640721 7.13996728-15.06876948 2.54854357-3.78236227 4.00485417-4.65210333 1.45631061-.86974106 3.27669887-.86974106 1.82038826 0 3.86326842 1.82038826 2.04288016 1.82038826 4.36893182 5.52184439 2.32605167 3.72168266 2.40695781 7.28155304.06067961 3.58009691-1.1731391 6.99838153-1.23381871 3.41828462-3.27669887 6.69498349-2.04288015 3.27669886-4.51051757 6.69498349-2.48786396 3.41828462-4.95550138 7.36245918l-1.4563106 12.23705441q5.09708712-10.63915805 15.00808987-14.27993457 3.47896423-1.31472485 8.1512941-1.31472485 9.32443319 0 14.25970803 4.44983796 4.95550137 4.42961144 4.95550137 13.02588933 0 8.59627789-8.59627789 14.56310608-8.57605136 5.96682818-17.313915 5.82524243zm5.52184438-17.0307435q0-5.23867288-5.96682818-5.23867288-5.96682818 0-12.96520972 11.48867257-2.04288015 3.35760501-3.49919076 6.85679578 15.14967563-.86974106 20.69174655-8.1512941 1.73948211-2.3462782 1.73948211-4.95550137zm60.15371872 33.05016018q11.34708682 0 21.98624487-9.02103515 3.92394802-3.35760501 6.41181198-6.18932008 2.46763742-2.85194161 3.78236227-2.85194161 2.04288016 0 2.04288016 4.08576031 0 4.08576032-2.18446591 9.1019413-2.18446592 5.01618099-7.28155304 9.83009661-12.52022592 11.79207061-34.36488504 11.79207061-17.33414154 0-23.60436776-12.52022592-2.18446591-4.36893182-2.18446591-12.52022592 0-8.15129409 3.21601925-16.97006388 3.19579273-8.8187698 8.51537175-15.21035524 5.31957903-6.41181198 12.29773402-9.99190889 6.99838153-3.55987038 14.92718373-3.55987038 7.94902873 0 12.23705441 3.92394803 4.28802568 3.94417456 4.28802568 10.19417425 0 6.27022623-3.11488658 10.2750804-3.13511311 4.00485417-8.09061448 6.69498349-4.95550138 2.69012932-11.00323571 4.81391562-6.02750779 2.10355977-11.85275022 4.73300948v3.64077651q.14158575 5.23867288 4.36893182 7.4231388 4.20711954 2.18446591 9.60760471 2.32605166zm-2.48786396-41.05986852q-7.56472454 0-10.47734576 17.61731304 3.05420697-2.04288015 5.74433629-3.64077651 2.71035585-1.59789637 4.73300947-3.05420697 4.36893183-3.21601926 4.53074411-7.28155304 0-3.64077652-4.53074411-3.64077652zm50.68769976 32.46359063.86974106 17.77912533q0 3.49919077-3.64077652 6.2499997-3.64077652 2.77103546-9.89077621 2.77103546-3.64077652 0-5.03640752-3.78236227-1.37540446-3.78236228-1.37540446-11.06391532 0-15.29126138 1.51699022-23.96844541 1.53721675-8.65695751 6.04773433-17.53640691-6.69498349-6.41181198-6.69498349-11.06391531 0-9.76941699 10.47734576-9.76941699 5.40048517 0 9.46601895 5.68365668 2.91262121 3.92394802 4.22734607 9.18284744 2.04288016.7281553 5.09708713.7281553 4.22734607 0 9.76941699-2.77103546l3.78236227-1.9012944q1.73948212-.86974106 3.05420697-.86974106 4.22734607 0 8.45469214 12.37864017-1.31472485 5.68365667-2.85194161 10.92232955-1.51699021 5.23867288-3.55987037 12.66181168-2.04288016 7.44336532-2.1237863 9.99190889-.06067961 2.54854356 1.53721675 2.54854356 2.18446591 0 5.38025863-2.77103546 3.21601926-2.77103546 6.41181198-6.04773433 3.21601926-3.27669887 5.90614858-6.04773433 2.69012932-2.77103546 3.70145613-2.77103546 2.04288016 0 2.04288016 4.95550137 0 10.0525885-8.79854326 19.80177896-8.81876979 9.76941699-20.18608315 9.62783124-6.69498348 0-10.03236196-5.40048517-3.35760501-5.38025863-3.49919077-13.10679547 0-15.29126138 6.83656925-28.9846264-3.19579273 1.31472485-7.2006469 1.31472485-4.00485417 0-5.76456282-.2831715-1.29449832 5.52184438-2.60922317 11.14482145-1.31472486 5.60275054-1.31472486 10.39643962z" fill="#2cb1bc"/></g></svg>